<mxfile host="app.diagrams.net" modified="2023-03-02T07:52:01.991Z" agent="5.0 (Windows NT 10.0; Win64; x64) AppleWebKit/537.36 (KHTML, like Gecko) Chrome/110.0.0.0 Safari/537.36 Edg/110.0.1587.57" etag="fE7CCAh2YeEn2Z2GGfCS" version="20.8.23" type="github">
  <diagram id="3vMIc5IcYFCmx4nej75x" name="第 1 页">
    <mxGraphModel dx="794" dy="438" grid="1" gridSize="10" guides="1" tooltips="1" connect="1" arrows="0" fold="1" page="1" pageScale="1" pageWidth="827" pageHeight="1169" math="0" shadow="0">
      <root>
        <mxCell id="0" />
        <mxCell id="1" parent="0" />
        <mxCell id="2C9ELIlUflR8zAabHK5Y-5" value="控制层" style="swimlane;whiteSpace=wrap;html=1;shadow=0;" vertex="1" parent="1">
          <mxGeometry x="280" y="160" width="280" height="500" as="geometry">
            <mxRectangle x="380" y="210" width="140" height="30" as="alternateBounds" />
          </mxGeometry>
        </mxCell>
        <mxCell id="2C9ELIlUflR8zAabHK5Y-11" value="" style="edgeStyle=orthogonalEdgeStyle;rounded=0;orthogonalLoop=1;jettySize=auto;html=1;" edge="1" parent="2C9ELIlUflR8zAabHK5Y-5" source="2C9ELIlUflR8zAabHK5Y-8" target="2C9ELIlUflR8zAabHK5Y-10">
          <mxGeometry relative="1" as="geometry" />
        </mxCell>
        <mxCell id="2C9ELIlUflR8zAabHK5Y-8" value="&lt;div class=&quot;mind-clipboard&quot;&gt;获取分布式锁&lt;div&gt;cusTel&lt;/div&gt;&lt;/div&gt;" style="rounded=1;whiteSpace=wrap;html=1;shadow=0;" vertex="1" parent="2C9ELIlUflR8zAabHK5Y-5">
          <mxGeometry x="60" y="80" width="120" height="60" as="geometry" />
        </mxCell>
        <mxCell id="2C9ELIlUflR8zAabHK5Y-10" value="&lt;div class=&quot;mind-clipboard&quot;&gt;选择案场不能为空或者不能超过5个&lt;br&gt;&lt;/div&gt;" style="rounded=1;whiteSpace=wrap;html=1;shadow=0;" vertex="1" parent="2C9ELIlUflR8zAabHK5Y-5">
          <mxGeometry x="60" y="170" width="120" height="60" as="geometry" />
        </mxCell>
        <mxCell id="2C9ELIlUflR8zAabHK5Y-16" value="&lt;div class=&quot;mind-clipboard&quot;&gt;阳光宣言未配置，不允许保存&lt;br&gt;&lt;/div&gt;" style="rounded=1;whiteSpace=wrap;html=1;shadow=0;" vertex="1" parent="2C9ELIlUflR8zAabHK5Y-5">
          <mxGeometry x="60" y="260" width="120" height="60" as="geometry" />
        </mxCell>
        <mxCell id="2C9ELIlUflR8zAabHK5Y-17" value="" style="edgeStyle=orthogonalEdgeStyle;rounded=0;orthogonalLoop=1;jettySize=auto;html=1;" edge="1" parent="2C9ELIlUflR8zAabHK5Y-5" source="2C9ELIlUflR8zAabHK5Y-10" target="2C9ELIlUflR8zAabHK5Y-16">
          <mxGeometry relative="1" as="geometry" />
        </mxCell>
        <mxCell id="2C9ELIlUflR8zAabHK5Y-21" value="&lt;div class=&quot;mind-clipboard&quot;&gt;创建并初始化CustomerReportDto&lt;br&gt;&lt;/div&gt;&lt;div class=&quot;mind-clipboard&quot;&gt;-CustomerReport&lt;/div&gt;&lt;div class=&quot;mind-clipboard&quot;&gt;-CustomerClue&lt;/div&gt;&lt;div class=&quot;mind-clipboard&quot;&gt;-CustomerNodeLog&lt;/div&gt;&lt;div class=&quot;mind-clipboard&quot;&gt;-ignoreCityReport&lt;/div&gt;&lt;div class=&quot;mind-clipboard&quot;&gt;-customerReportLog&lt;/div&gt;" style="rounded=1;whiteSpace=wrap;html=1;shadow=0;align=left;" vertex="1" parent="2C9ELIlUflR8zAabHK5Y-5">
          <mxGeometry x="50" y="367" width="140" height="115" as="geometry" />
        </mxCell>
        <mxCell id="2C9ELIlUflR8zAabHK5Y-22" value="" style="edgeStyle=orthogonalEdgeStyle;rounded=0;orthogonalLoop=1;jettySize=auto;html=1;" edge="1" parent="2C9ELIlUflR8zAabHK5Y-5" source="2C9ELIlUflR8zAabHK5Y-16" target="2C9ELIlUflR8zAabHK5Y-21">
          <mxGeometry relative="1" as="geometry" />
        </mxCell>
        <mxCell id="2C9ELIlUflR8zAabHK5Y-7" style="edgeStyle=orthogonalEdgeStyle;rounded=0;orthogonalLoop=1;jettySize=auto;html=1;entryX=0;entryY=0.5;entryDx=0;entryDy=0;" edge="1" parent="1" source="2C9ELIlUflR8zAabHK5Y-6" target="2C9ELIlUflR8zAabHK5Y-8">
          <mxGeometry relative="1" as="geometry">
            <mxPoint x="400" y="270" as="targetPoint" />
          </mxGeometry>
        </mxCell>
        <mxCell id="2C9ELIlUflR8zAabHK5Y-20" value="置业通报备" style="edgeLabel;html=1;align=center;verticalAlign=middle;resizable=0;points=[];" vertex="1" connectable="0" parent="2C9ELIlUflR8zAabHK5Y-7">
          <mxGeometry x="-0.1101" y="-3" relative="1" as="geometry">
            <mxPoint as="offset" />
          </mxGeometry>
        </mxCell>
        <mxCell id="2C9ELIlUflR8zAabHK5Y-6" value="经纪人" style="shape=umlActor;verticalLabelPosition=bottom;verticalAlign=top;html=1;outlineConnect=0;shadow=0;" vertex="1" parent="1">
          <mxGeometry x="90" y="240" width="30" height="60" as="geometry" />
        </mxCell>
        <mxCell id="2C9ELIlUflR8zAabHK5Y-19" value="&lt;div class=&quot;mind-clipboard&quot;&gt;&lt;div&gt;&lt;/div&gt;agentId，agentTypeNo，&lt;div&gt;cusName，&lt;br&gt;&lt;/div&gt;&lt;div&gt;cusSex，&lt;/div&gt;&lt;div&gt;cusTel，saleAdvister，&lt;br&gt;&lt;/div&gt;&lt;div&gt;saleTeamId，&lt;br&gt;&lt;/div&gt;&lt;div&gt;ruleConfigureId&lt;br&gt;&lt;/div&gt;&lt;/div&gt;" style="whiteSpace=wrap;html=1;aspect=fixed;shadow=0;align=left;" vertex="1" parent="1">
          <mxGeometry x="150" y="140" width="120" height="120" as="geometry" />
        </mxCell>
        <mxCell id="2C9ELIlUflR8zAabHK5Y-23" value="校验经纪人VerifyAgentReportHandler" style="swimlane;whiteSpace=wrap;html=1;shadow=0;" vertex="1" parent="1">
          <mxGeometry x="560" y="160" width="280" height="500" as="geometry">
            <mxRectangle x="380" y="210" width="140" height="30" as="alternateBounds" />
          </mxGeometry>
        </mxCell>
        <mxCell id="2C9ELIlUflR8zAabHK5Y-24" value="" style="edgeStyle=orthogonalEdgeStyle;rounded=0;orthogonalLoop=1;jettySize=auto;html=1;" edge="1" parent="2C9ELIlUflR8zAabHK5Y-23" source="2C9ELIlUflR8zAabHK5Y-25" target="2C9ELIlUflR8zAabHK5Y-26">
          <mxGeometry relative="1" as="geometry" />
        </mxCell>
        <mxCell id="2C9ELIlUflR8zAabHK5Y-25" value="&lt;div class=&quot;mind-clipboard&quot;&gt;根据agentId获取Agent agent&lt;/div&gt;" style="rounded=1;whiteSpace=wrap;html=1;shadow=0;" vertex="1" parent="2C9ELIlUflR8zAabHK5Y-23">
          <mxGeometry x="60" y="80" width="120" height="60" as="geometry" />
        </mxCell>
        <mxCell id="2C9ELIlUflR8zAabHK5Y-26" value="&lt;div class=&quot;mind-clipboard&quot;&gt;判断是否黑名单&lt;br&gt;&lt;/div&gt;&lt;div class=&quot;mind-clipboard&quot;&gt;agent.blackList=X&lt;/div&gt;" style="rounded=1;whiteSpace=wrap;html=1;shadow=0;" vertex="1" parent="2C9ELIlUflR8zAabHK5Y-23">
          <mxGeometry x="60" y="170" width="120" height="60" as="geometry" />
        </mxCell>
        <mxCell id="2C9ELIlUflR8zAabHK5Y-27" value="&lt;div class=&quot;mind-clipboard&quot;&gt;设置经济人类型&lt;/div&gt;&lt;div class=&quot;mind-clipboard&quot;&gt;agent.agentTypeNo&lt;/div&gt;" style="rounded=1;whiteSpace=wrap;html=1;shadow=0;" vertex="1" parent="2C9ELIlUflR8zAabHK5Y-23">
          <mxGeometry x="60" y="260" width="120" height="60" as="geometry" />
        </mxCell>
        <mxCell id="2C9ELIlUflR8zAabHK5Y-28" value="" style="edgeStyle=orthogonalEdgeStyle;rounded=0;orthogonalLoop=1;jettySize=auto;html=1;" edge="1" parent="2C9ELIlUflR8zAabHK5Y-23" source="2C9ELIlUflR8zAabHK5Y-26" target="2C9ELIlUflR8zAabHK5Y-27">
          <mxGeometry relative="1" as="geometry" />
        </mxCell>
        <mxCell id="2C9ELIlUflR8zAabHK5Y-29" value="&lt;div class=&quot;mind-clipboard&quot;&gt;设置CustomerReportDto&lt;br&gt;&lt;/div&gt;&lt;div class=&quot;mind-clipboard&quot;&gt;-agent&lt;/div&gt;" style="rounded=1;whiteSpace=wrap;html=1;shadow=0;align=left;" vertex="1" parent="2C9ELIlUflR8zAabHK5Y-23">
          <mxGeometry x="50" y="367" width="140" height="115" as="geometry" />
        </mxCell>
        <mxCell id="2C9ELIlUflR8zAabHK5Y-30" value="" style="edgeStyle=orthogonalEdgeStyle;rounded=0;orthogonalLoop=1;jettySize=auto;html=1;" edge="1" parent="2C9ELIlUflR8zAabHK5Y-23" source="2C9ELIlUflR8zAabHK5Y-27" target="2C9ELIlUflR8zAabHK5Y-29">
          <mxGeometry relative="1" as="geometry" />
        </mxCell>
        <mxCell id="2C9ELIlUflR8zAabHK5Y-31" style="edgeStyle=orthogonalEdgeStyle;rounded=0;orthogonalLoop=1;jettySize=auto;html=1;entryX=0;entryY=0.5;entryDx=0;entryDy=0;" edge="1" parent="1" source="2C9ELIlUflR8zAabHK5Y-21" target="2C9ELIlUflR8zAabHK5Y-25">
          <mxGeometry relative="1" as="geometry" />
        </mxCell>
        <mxCell id="2C9ELIlUflR8zAabHK5Y-32" value="加载规则LoadReportRuleHandler" style="swimlane;whiteSpace=wrap;html=1;shadow=0;" vertex="1" parent="1">
          <mxGeometry x="840" y="160" width="280" height="500" as="geometry">
            <mxRectangle x="380" y="210" width="140" height="30" as="alternateBounds" />
          </mxGeometry>
        </mxCell>
        <mxCell id="2C9ELIlUflR8zAabHK5Y-33" value="Y" style="edgeStyle=orthogonalEdgeStyle;rounded=0;orthogonalLoop=1;jettySize=auto;html=1;exitX=0;exitY=0.5;exitDx=0;exitDy=0;" edge="1" parent="2C9ELIlUflR8zAabHK5Y-32" source="2C9ELIlUflR8zAabHK5Y-74" target="2C9ELIlUflR8zAabHK5Y-35">
          <mxGeometry relative="1" as="geometry">
            <mxPoint x="120" y="140" as="sourcePoint" />
          </mxGeometry>
        </mxCell>
        <mxCell id="2C9ELIlUflR8zAabHK5Y-35" value="&lt;div class=&quot;mind-clipboard&quot;&gt;读默认规则BaseRule&lt;/div&gt;&lt;div class=&quot;mind-clipboard&quot;&gt;type=1&amp;amp;isValid=1&lt;/div&gt;" style="rounded=1;whiteSpace=wrap;html=1;shadow=0;" vertex="1" parent="2C9ELIlUflR8zAabHK5Y-32">
          <mxGeometry x="10" y="170" width="120" height="60" as="geometry" />
        </mxCell>
        <mxCell id="2C9ELIlUflR8zAabHK5Y-36" value="&lt;div class=&quot;mind-clipboard&quot;&gt;如果找不到报备规则：该案场无配置规则，报备失败&lt;br&gt;&lt;/div&gt;" style="rounded=1;whiteSpace=wrap;html=1;shadow=0;" vertex="1" parent="2C9ELIlUflR8zAabHK5Y-32">
          <mxGeometry x="60" y="260" width="120" height="60" as="geometry" />
        </mxCell>
        <mxCell id="2C9ELIlUflR8zAabHK5Y-37" value="" style="edgeStyle=orthogonalEdgeStyle;rounded=0;orthogonalLoop=1;jettySize=auto;html=1;" edge="1" parent="2C9ELIlUflR8zAabHK5Y-32" source="2C9ELIlUflR8zAabHK5Y-35" target="2C9ELIlUflR8zAabHK5Y-36">
          <mxGeometry relative="1" as="geometry">
            <Array as="points">
              <mxPoint x="30" y="290" />
            </Array>
          </mxGeometry>
        </mxCell>
        <mxCell id="2C9ELIlUflR8zAabHK5Y-38" value="&lt;div class=&quot;mind-clipboard&quot;&gt;设置CustomerReportDto&lt;br&gt;&lt;/div&gt;&lt;div class=&quot;mind-clipboard&quot;&gt;-rulesMap&lt;/div&gt;&lt;div class=&quot;mind-clipboard&quot;&gt;&lt;br&gt;&lt;/div&gt;&lt;div class=&quot;mind-clipboard&quot;&gt;Map&amp;lt;String, ReportRule&amp;gt;&lt;br&gt;&lt;/div&gt;&lt;div class=&quot;mind-clipboard&quot;&gt;-checkConId&lt;/div&gt;" style="rounded=1;whiteSpace=wrap;html=1;shadow=0;align=left;" vertex="1" parent="2C9ELIlUflR8zAabHK5Y-32">
          <mxGeometry x="50" y="367" width="140" height="115" as="geometry" />
        </mxCell>
        <mxCell id="2C9ELIlUflR8zAabHK5Y-39" value="" style="edgeStyle=orthogonalEdgeStyle;rounded=0;orthogonalLoop=1;jettySize=auto;html=1;" edge="1" parent="2C9ELIlUflR8zAabHK5Y-32" source="2C9ELIlUflR8zAabHK5Y-36" target="2C9ELIlUflR8zAabHK5Y-38">
          <mxGeometry relative="1" as="geometry" />
        </mxCell>
        <mxCell id="2C9ELIlUflR8zAabHK5Y-76" value="N" style="edgeStyle=orthogonalEdgeStyle;rounded=0;orthogonalLoop=1;jettySize=auto;html=1;exitX=1;exitY=0.5;exitDx=0;exitDy=0;entryX=0.75;entryY=0;entryDx=0;entryDy=0;" edge="1" parent="2C9ELIlUflR8zAabHK5Y-32" source="2C9ELIlUflR8zAabHK5Y-74" target="2C9ELIlUflR8zAabHK5Y-75">
          <mxGeometry relative="1" as="geometry">
            <Array as="points">
              <mxPoint x="238" y="90" />
              <mxPoint x="238" y="150" />
            </Array>
          </mxGeometry>
        </mxCell>
        <mxCell id="2C9ELIlUflR8zAabHK5Y-74" value="经纪人类型是&lt;br&gt;60-70-80-100" style="rhombus;whiteSpace=wrap;html=1;shadow=0;labelBackgroundColor=default;" vertex="1" parent="2C9ELIlUflR8zAabHK5Y-32">
          <mxGeometry x="90" y="50" width="130" height="80" as="geometry" />
        </mxCell>
        <mxCell id="2C9ELIlUflR8zAabHK5Y-78" style="edgeStyle=orthogonalEdgeStyle;rounded=0;orthogonalLoop=1;jettySize=auto;html=1;exitX=0.5;exitY=1;exitDx=0;exitDy=0;entryX=1;entryY=0.5;entryDx=0;entryDy=0;" edge="1" parent="2C9ELIlUflR8zAabHK5Y-32" source="2C9ELIlUflR8zAabHK5Y-75" target="2C9ELIlUflR8zAabHK5Y-36">
          <mxGeometry relative="1" as="geometry" />
        </mxCell>
        <mxCell id="2C9ELIlUflR8zAabHK5Y-75" value="&lt;div class=&quot;mind-clipboard&quot;&gt;读案场规则ReportRule&lt;/div&gt;&lt;div class=&quot;mind-clipboard&quot;&gt;saleTeamId&amp;amp;agentTypeNo&lt;/div&gt;" style="rounded=1;whiteSpace=wrap;html=1;shadow=0;" vertex="1" parent="2C9ELIlUflR8zAabHK5Y-32">
          <mxGeometry x="140" y="170" width="130" height="60" as="geometry" />
        </mxCell>
        <mxCell id="2C9ELIlUflR8zAabHK5Y-40" value="校验经纪人&amp;amp;隐号报备VerifyAgentAndMobileReportHandler" style="swimlane;whiteSpace=wrap;html=1;shadow=0;" vertex="1" parent="1">
          <mxGeometry x="1120" y="160" width="280" height="500" as="geometry">
            <mxRectangle x="380" y="210" width="140" height="30" as="alternateBounds" />
          </mxGeometry>
        </mxCell>
        <mxCell id="2C9ELIlUflR8zAabHK5Y-41" value="" style="edgeStyle=orthogonalEdgeStyle;rounded=0;orthogonalLoop=1;jettySize=auto;html=1;" edge="1" parent="2C9ELIlUflR8zAabHK5Y-40" source="2C9ELIlUflR8zAabHK5Y-42" target="2C9ELIlUflR8zAabHK5Y-43">
          <mxGeometry relative="1" as="geometry" />
        </mxCell>
        <mxCell id="2C9ELIlUflR8zAabHK5Y-42" value="&lt;div class=&quot;mind-clipboard&quot;&gt;检查手机号码格式&lt;/div&gt;&lt;div class=&quot;mind-clipboard&quot;&gt;*0-9，且11位&lt;/div&gt;" style="rounded=1;whiteSpace=wrap;html=1;shadow=0;" vertex="1" parent="2C9ELIlUflR8zAabHK5Y-40">
          <mxGeometry x="60" y="80" width="120" height="60" as="geometry" />
        </mxCell>
        <mxCell id="2C9ELIlUflR8zAabHK5Y-43" value="&lt;div class=&quot;mind-clipboard&quot;&gt;国内手机是隐号只支持机构，拓客，线上&lt;/div&gt;" style="rounded=1;whiteSpace=wrap;html=1;shadow=0;" vertex="1" parent="2C9ELIlUflR8zAabHK5Y-40">
          <mxGeometry x="60" y="170" width="120" height="60" as="geometry" />
        </mxCell>
        <mxCell id="2C9ELIlUflR8zAabHK5Y-44" value="&lt;div class=&quot;mind-clipboard&quot;&gt;国内全号还进一步正则匹配13-19开头&lt;/div&gt;" style="rounded=1;whiteSpace=wrap;html=1;shadow=0;" vertex="1" parent="2C9ELIlUflR8zAabHK5Y-40">
          <mxGeometry x="60" y="260" width="120" height="60" as="geometry" />
        </mxCell>
        <mxCell id="2C9ELIlUflR8zAabHK5Y-45" value="" style="edgeStyle=orthogonalEdgeStyle;rounded=0;orthogonalLoop=1;jettySize=auto;html=1;" edge="1" parent="2C9ELIlUflR8zAabHK5Y-40" source="2C9ELIlUflR8zAabHK5Y-43" target="2C9ELIlUflR8zAabHK5Y-44">
          <mxGeometry relative="1" as="geometry" />
        </mxCell>
        <mxCell id="2C9ELIlUflR8zAabHK5Y-47" value="" style="edgeStyle=orthogonalEdgeStyle;rounded=0;orthogonalLoop=1;jettySize=auto;html=1;" edge="1" parent="2C9ELIlUflR8zAabHK5Y-40" source="2C9ELIlUflR8zAabHK5Y-44">
          <mxGeometry relative="1" as="geometry">
            <mxPoint x="120" y="367" as="targetPoint" />
          </mxGeometry>
        </mxCell>
        <mxCell id="2C9ELIlUflR8zAabHK5Y-80" value="&lt;div class=&quot;mind-clipboard&quot;&gt;港澳电话不检验&lt;/div&gt;" style="rounded=1;whiteSpace=wrap;html=1;shadow=0;" vertex="1" parent="2C9ELIlUflR8zAabHK5Y-40">
          <mxGeometry x="60" y="365" width="120" height="60" as="geometry" />
        </mxCell>
        <mxCell id="2C9ELIlUflR8zAabHK5Y-48" value="校验规则VerifyReportRuleHandler" style="swimlane;whiteSpace=wrap;html=1;shadow=0;startSize=23;" vertex="1" parent="1">
          <mxGeometry x="1400" y="160" width="280" height="500" as="geometry">
            <mxRectangle x="380" y="210" width="140" height="30" as="alternateBounds" />
          </mxGeometry>
        </mxCell>
        <mxCell id="2C9ELIlUflR8zAabHK5Y-50" value="&lt;div class=&quot;mind-clipboard&quot;&gt;10不允许推荐华发员工&lt;/div&gt;&lt;div class=&quot;mind-clipboard&quot;&gt;通过电话查询erp系统&lt;/div&gt;" style="rounded=1;whiteSpace=wrap;html=1;shadow=0;" vertex="1" parent="2C9ELIlUflR8zAabHK5Y-48">
          <mxGeometry x="30" y="68" width="230" height="30" as="geometry" />
        </mxCell>
        <mxCell id="2C9ELIlUflR8zAabHK5Y-82" value="&lt;div class=&quot;mind-clipboard&quot;&gt;30&lt;span style=&quot;background-color: initial;&quot;&gt;不允许经纪人推荐自己&lt;/span&gt;&lt;/div&gt;&lt;div class=&quot;mind-clipboard&quot;&gt;&lt;span style=&quot;background-color: initial;&quot;&gt;对比报备电话&lt;/span&gt;&lt;br&gt;&lt;/div&gt;" style="rounded=1;whiteSpace=wrap;html=1;shadow=0;" vertex="1" parent="2C9ELIlUflR8zAabHK5Y-48">
          <mxGeometry x="30" y="108" width="230" height="30" as="geometry" />
        </mxCell>
        <mxCell id="2C9ELIlUflR8zAabHK5Y-83" value="&lt;div class=&quot;mind-clipboard&quot;&gt;60每日推荐客户上限&lt;/div&gt;&lt;div class=&quot;mind-clipboard&quot;&gt;report表查当天已报备客户数量&lt;/div&gt;" style="rounded=1;whiteSpace=wrap;html=1;shadow=0;" vertex="1" parent="2C9ELIlUflR8zAabHK5Y-48">
          <mxGeometry x="30" y="158" width="230" height="30" as="geometry" />
        </mxCell>
        <mxCell id="2C9ELIlUflR8zAabHK5Y-84" value="&lt;div class=&quot;mind-clipboard&quot;&gt;110是否允许该类经纪人报备&lt;/div&gt;&lt;div class=&quot;mind-clipboard&quot;&gt;&lt;span style=&quot;background-color: initial;&quot;&gt;通过电话查询erp系统&lt;/span&gt;&lt;br&gt;&lt;/div&gt;" style="rounded=1;whiteSpace=wrap;html=1;shadow=0;" vertex="1" parent="2C9ELIlUflR8zAabHK5Y-48">
          <mxGeometry x="30" y="208" width="230" height="30" as="geometry" />
        </mxCell>
        <mxCell id="2C9ELIlUflR8zAabHK5Y-85" value="&lt;div class=&quot;mind-clipboard&quot;&gt;130该项目不允许置业顾问报备&lt;br&gt;&lt;/div&gt;&lt;div class=&quot;mind-clipboard&quot;&gt;通过电话，team_type，案场ID查&lt;/div&gt;" style="rounded=1;whiteSpace=wrap;html=1;shadow=0;" vertex="1" parent="2C9ELIlUflR8zAabHK5Y-48">
          <mxGeometry x="30" y="248" width="230" height="30" as="geometry" />
        </mxCell>
        <mxCell id="2C9ELIlUflR8zAabHK5Y-86" value="&lt;div class=&quot;mind-clipboard&quot;&gt;160是否允许隐号报备&lt;/div&gt;&lt;div class=&quot;mind-clipboard&quot;&gt;&lt;span style=&quot;background-color: initial;&quot;&gt;通过电话是否包含*【仅国内电话】&lt;/span&gt;&lt;br&gt;&lt;/div&gt;" style="rounded=1;whiteSpace=wrap;html=1;shadow=0;" vertex="1" parent="2C9ELIlUflR8zAabHK5Y-48">
          <mxGeometry x="30" y="288" width="230" height="30" as="geometry" />
        </mxCell>
        <mxCell id="2C9ELIlUflR8zAabHK5Y-87" value="&lt;div class=&quot;mind-clipboard&quot;&gt;260是否允许同一机构保护期内多次报备&lt;/div&gt;&lt;div class=&quot;mind-clipboard&quot;&gt;检查是否设置规则&lt;/div&gt;" style="rounded=1;whiteSpace=wrap;html=1;shadow=0;" vertex="1" parent="2C9ELIlUflR8zAabHK5Y-48">
          <mxGeometry x="30" y="328" width="230" height="30" as="geometry" />
        </mxCell>
        <mxCell id="2C9ELIlUflR8zAabHK5Y-88" value="&lt;div class=&quot;mind-clipboard&quot;&gt;40推荐后未到访日期&lt;/div&gt;&lt;div class=&quot;mind-clipboard&quot;&gt;计算到访保护期visitExtendDate&lt;/div&gt;" style="rounded=1;whiteSpace=wrap;html=1;shadow=0;" vertex="1" parent="2C9ELIlUflR8zAabHK5Y-48">
          <mxGeometry x="30" y="368" width="230" height="30" as="geometry" />
        </mxCell>
        <mxCell id="2C9ELIlUflR8zAabHK5Y-98" value="&lt;div class=&quot;mind-clipboard&quot;&gt;50到访后未成交日期&lt;/div&gt;&lt;div class=&quot;mind-clipboard&quot;&gt;&lt;span style=&quot;background-color: initial;&quot;&gt;计算成交保护期&lt;/span&gt;dealExtendDate&lt;br&gt;&lt;/div&gt;" style="rounded=1;whiteSpace=wrap;html=1;shadow=0;" vertex="1" parent="2C9ELIlUflR8zAabHK5Y-48">
          <mxGeometry x="30" y="408" width="230" height="30" as="geometry" />
        </mxCell>
        <mxCell id="2C9ELIlUflR8zAabHK5Y-56" value="校验业主身份VerifyIsOwnerReportHandler" style="swimlane;whiteSpace=wrap;html=1;shadow=0;" vertex="1" parent="1">
          <mxGeometry x="1680" y="160" width="280" height="500" as="geometry">
            <mxRectangle x="380" y="210" width="140" height="30" as="alternateBounds" />
          </mxGeometry>
        </mxCell>
        <mxCell id="2C9ELIlUflR8zAabHK5Y-57" value="" style="edgeStyle=orthogonalEdgeStyle;rounded=0;orthogonalLoop=1;jettySize=auto;html=1;" edge="1" parent="2C9ELIlUflR8zAabHK5Y-56" source="2C9ELIlUflR8zAabHK5Y-58" target="2C9ELIlUflR8zAabHK5Y-59">
          <mxGeometry relative="1" as="geometry" />
        </mxCell>
        <mxCell id="2C9ELIlUflR8zAabHK5Y-58" value="&lt;div class=&quot;mind-clipboard&quot;&gt;获取分布式锁&lt;div&gt;cusTel&lt;/div&gt;&lt;/div&gt;" style="rounded=1;whiteSpace=wrap;html=1;shadow=0;" vertex="1" parent="2C9ELIlUflR8zAabHK5Y-56">
          <mxGeometry x="60" y="80" width="120" height="60" as="geometry" />
        </mxCell>
        <mxCell id="2C9ELIlUflR8zAabHK5Y-59" value="&lt;div class=&quot;mind-clipboard&quot;&gt;选择案场不能为空或者不能超过5个&lt;br&gt;&lt;/div&gt;" style="rounded=1;whiteSpace=wrap;html=1;shadow=0;" vertex="1" parent="2C9ELIlUflR8zAabHK5Y-56">
          <mxGeometry x="60" y="170" width="120" height="60" as="geometry" />
        </mxCell>
        <mxCell id="2C9ELIlUflR8zAabHK5Y-60" value="&lt;div class=&quot;mind-clipboard&quot;&gt;阳光宣言未配置，不允许保存&lt;br&gt;&lt;/div&gt;" style="rounded=1;whiteSpace=wrap;html=1;shadow=0;" vertex="1" parent="2C9ELIlUflR8zAabHK5Y-56">
          <mxGeometry x="60" y="260" width="120" height="60" as="geometry" />
        </mxCell>
        <mxCell id="2C9ELIlUflR8zAabHK5Y-61" value="" style="edgeStyle=orthogonalEdgeStyle;rounded=0;orthogonalLoop=1;jettySize=auto;html=1;" edge="1" parent="2C9ELIlUflR8zAabHK5Y-56" source="2C9ELIlUflR8zAabHK5Y-59" target="2C9ELIlUflR8zAabHK5Y-60">
          <mxGeometry relative="1" as="geometry" />
        </mxCell>
        <mxCell id="2C9ELIlUflR8zAabHK5Y-62" value="&lt;div class=&quot;mind-clipboard&quot;&gt;创建并初始化CustomerReportDto&lt;br&gt;&lt;/div&gt;&lt;div class=&quot;mind-clipboard&quot;&gt;-CustomerReport&lt;/div&gt;&lt;div class=&quot;mind-clipboard&quot;&gt;-CustomerClue&lt;/div&gt;&lt;div class=&quot;mind-clipboard&quot;&gt;-CustomerNodeLog&lt;/div&gt;&lt;div class=&quot;mind-clipboard&quot;&gt;-ignoreCityReport&lt;/div&gt;" style="rounded=1;whiteSpace=wrap;html=1;shadow=0;align=left;" vertex="1" parent="2C9ELIlUflR8zAabHK5Y-56">
          <mxGeometry x="50" y="367" width="140" height="115" as="geometry" />
        </mxCell>
        <mxCell id="2C9ELIlUflR8zAabHK5Y-63" value="" style="edgeStyle=orthogonalEdgeStyle;rounded=0;orthogonalLoop=1;jettySize=auto;html=1;" edge="1" parent="2C9ELIlUflR8zAabHK5Y-56" source="2C9ELIlUflR8zAabHK5Y-60" target="2C9ELIlUflR8zAabHK5Y-62">
          <mxGeometry relative="1" as="geometry" />
        </mxCell>
        <mxCell id="2C9ELIlUflR8zAabHK5Y-64" value="校验非业主身份的线索VerifyNotOwnerClueReportHandler" style="swimlane;whiteSpace=wrap;html=1;shadow=0;" vertex="1" parent="1">
          <mxGeometry x="1960" y="160" width="380" height="500" as="geometry">
            <mxRectangle x="380" y="210" width="140" height="30" as="alternateBounds" />
          </mxGeometry>
        </mxCell>
        <mxCell id="2C9ELIlUflR8zAabHK5Y-65" value="" style="edgeStyle=orthogonalEdgeStyle;rounded=0;orthogonalLoop=1;jettySize=auto;html=1;" edge="1" parent="2C9ELIlUflR8zAabHK5Y-64" source="2C9ELIlUflR8zAabHK5Y-66" target="2C9ELIlUflR8zAabHK5Y-67">
          <mxGeometry relative="1" as="geometry" />
        </mxCell>
        <mxCell id="2C9ELIlUflR8zAabHK5Y-106" value="隐号" style="edgeLabel;html=1;align=center;verticalAlign=middle;resizable=0;points=[];" vertex="1" connectable="0" parent="2C9ELIlUflR8zAabHK5Y-65">
          <mxGeometry x="0.3476" y="2" relative="1" as="geometry">
            <mxPoint x="9" y="1" as="offset" />
          </mxGeometry>
        </mxCell>
        <mxCell id="2C9ELIlUflR8zAabHK5Y-105" style="edgeStyle=orthogonalEdgeStyle;rounded=0;orthogonalLoop=1;jettySize=auto;html=1;exitX=0.5;exitY=1;exitDx=0;exitDy=0;entryX=0.5;entryY=0;entryDx=0;entryDy=0;" edge="1" parent="2C9ELIlUflR8zAabHK5Y-64" source="2C9ELIlUflR8zAabHK5Y-66" target="2C9ELIlUflR8zAabHK5Y-104">
          <mxGeometry relative="1" as="geometry" />
        </mxCell>
        <mxCell id="2C9ELIlUflR8zAabHK5Y-107" value="全号" style="edgeLabel;html=1;align=center;verticalAlign=middle;resizable=0;points=[];" vertex="1" connectable="0" parent="2C9ELIlUflR8zAabHK5Y-105">
          <mxGeometry x="0.2381" y="-3" relative="1" as="geometry">
            <mxPoint as="offset" />
          </mxGeometry>
        </mxCell>
        <mxCell id="2C9ELIlUflR8zAabHK5Y-66" value="&lt;div class=&quot;mind-clipboard&quot;&gt;240检查是否允许重复报备&lt;/div&gt;&lt;div class=&quot;mind-clipboard&quot;&gt;allow&lt;/div&gt;" style="rounded=1;whiteSpace=wrap;html=1;shadow=0;" vertex="1" parent="2C9ELIlUflR8zAabHK5Y-64">
          <mxGeometry x="40" y="40" width="200" height="30" as="geometry" />
        </mxCell>
        <mxCell id="2C9ELIlUflR8zAabHK5Y-67" value="&lt;div class=&quot;mind-clipboard&quot;&gt;&lt;div style=&quot;border-color: var(--border-color);&quot; class=&quot;mind-clipboard&quot;&gt;看本案场是否未成交的有效线索customer_clue&lt;br style=&quot;border-color: var(--border-color);&quot;&gt;&lt;/div&gt;&lt;div style=&quot;border-color: var(--border-color);&quot; class=&quot;mind-clipboard&quot;&gt;status in (&#39;10&#39;,&#39;20&#39;,&#39;30&#39;)&lt;/div&gt;&lt;div style=&quot;border-color: var(--border-color);&quot; class=&quot;mind-clipboard&quot;&gt;is_valid = 1&lt;/div&gt;&lt;div style=&quot;border-color: var(--border-color);&quot; class=&quot;mind-clipboard&quot;&gt;mobile前三后四&lt;/div&gt;&lt;/div&gt;" style="rounded=1;whiteSpace=wrap;html=1;shadow=0;" vertex="1" parent="2C9ELIlUflR8zAabHK5Y-64">
          <mxGeometry x="10" y="140" width="160" height="80" as="geometry" />
        </mxCell>
        <mxCell id="2C9ELIlUflR8zAabHK5Y-68" value="&lt;div class=&quot;mind-clipboard&quot;&gt;&lt;br&gt;&lt;/div&gt;" style="rounded=1;whiteSpace=wrap;html=1;shadow=0;" vertex="1" parent="2C9ELIlUflR8zAabHK5Y-64">
          <mxGeometry x="5" y="240" width="170" height="140" as="geometry" />
        </mxCell>
        <mxCell id="2C9ELIlUflR8zAabHK5Y-69" value="" style="edgeStyle=orthogonalEdgeStyle;rounded=0;orthogonalLoop=1;jettySize=auto;html=1;" edge="1" parent="2C9ELIlUflR8zAabHK5Y-64" source="2C9ELIlUflR8zAabHK5Y-67" target="2C9ELIlUflR8zAabHK5Y-68">
          <mxGeometry relative="1" as="geometry" />
        </mxCell>
        <mxCell id="2C9ELIlUflR8zAabHK5Y-108" style="edgeStyle=orthogonalEdgeStyle;rounded=0;orthogonalLoop=1;jettySize=auto;html=1;exitX=0.5;exitY=1;exitDx=0;exitDy=0;" edge="1" parent="2C9ELIlUflR8zAabHK5Y-64" source="2C9ELIlUflR8zAabHK5Y-104">
          <mxGeometry relative="1" as="geometry">
            <mxPoint x="280" y="240" as="targetPoint" />
          </mxGeometry>
        </mxCell>
        <mxCell id="2C9ELIlUflR8zAabHK5Y-104" value="&lt;div class=&quot;mind-clipboard&quot;&gt;看本案场是否未成交的有效线索customer_clue&lt;br&gt;&lt;/div&gt;&lt;div class=&quot;mind-clipboard&quot;&gt;status in (&#39;10&#39;,&#39;20&#39;,&#39;30&#39;)&lt;/div&gt;&lt;div class=&quot;mind-clipboard&quot;&gt;is_valid = 1&lt;br&gt;&lt;/div&gt;" style="rounded=1;whiteSpace=wrap;html=1;shadow=0;" vertex="1" parent="2C9ELIlUflR8zAabHK5Y-64">
          <mxGeometry x="200" y="140" width="160" height="60" as="geometry" />
        </mxCell>
        <mxCell id="2C9ELIlUflR8zAabHK5Y-109" value="&lt;div class=&quot;mind-clipboard&quot;&gt;1、无线索可报备&lt;/div&gt;&lt;div class=&quot;mind-clipboard&quot;&gt;2、有线索且自然到访不可报备&lt;/div&gt;&lt;div class=&quot;mind-clipboard&quot;&gt;3、有线索非自然到访且已到访的，再判断同一机构重复报备&lt;/div&gt;&lt;div class=&quot;mind-clipboard&quot;&gt;4、有线索非自然到访且未到访，根据规则allow判断且为同一经纪人类型才行&lt;/div&gt;" style="rounded=1;whiteSpace=wrap;html=1;shadow=0;align=left;" vertex="1" parent="2C9ELIlUflR8zAabHK5Y-64">
          <mxGeometry x="200" y="240" width="170" height="140" as="geometry" />
        </mxCell>
        <mxCell id="2C9ELIlUflR8zAabHK5Y-72" value="&lt;h1&gt;说明&lt;/h1&gt;&lt;p&gt;customerReportLog 有值，每个Handler都直接返回,记录报备失败日志&lt;br&gt;&lt;/p&gt;" style="text;html=1;strokeColor=none;fillColor=none;spacing=5;spacingTop=-20;whiteSpace=wrap;overflow=hidden;rounded=0;" vertex="1" parent="1">
          <mxGeometry x="300" y="670" width="190" height="120" as="geometry" />
        </mxCell>
        <mxCell id="2C9ELIlUflR8zAabHK5Y-73" style="edgeStyle=orthogonalEdgeStyle;rounded=0;orthogonalLoop=1;jettySize=auto;html=1;exitX=1;exitY=0.5;exitDx=0;exitDy=0;entryX=0.5;entryY=0;entryDx=0;entryDy=0;" edge="1" parent="1" source="2C9ELIlUflR8zAabHK5Y-29" target="2C9ELIlUflR8zAabHK5Y-74">
          <mxGeometry relative="1" as="geometry">
            <mxPoint x="890" y="200" as="targetPoint" />
          </mxGeometry>
        </mxCell>
        <mxCell id="2C9ELIlUflR8zAabHK5Y-79" style="edgeStyle=orthogonalEdgeStyle;rounded=0;orthogonalLoop=1;jettySize=auto;html=1;exitX=1;exitY=0.5;exitDx=0;exitDy=0;entryX=0;entryY=0.5;entryDx=0;entryDy=0;" edge="1" parent="1" source="2C9ELIlUflR8zAabHK5Y-38" target="2C9ELIlUflR8zAabHK5Y-42">
          <mxGeometry relative="1" as="geometry">
            <Array as="points">
              <mxPoint x="1130" y="585" />
              <mxPoint x="1130" y="270" />
            </Array>
          </mxGeometry>
        </mxCell>
        <mxCell id="2C9ELIlUflR8zAabHK5Y-81" style="edgeStyle=orthogonalEdgeStyle;rounded=0;orthogonalLoop=1;jettySize=auto;html=1;exitX=1;exitY=0.5;exitDx=0;exitDy=0;entryX=0;entryY=0.5;entryDx=0;entryDy=0;" edge="1" parent="1" source="2C9ELIlUflR8zAabHK5Y-80" target="2C9ELIlUflR8zAabHK5Y-50">
          <mxGeometry relative="1" as="geometry" />
        </mxCell>
        <mxCell id="2C9ELIlUflR8zAabHK5Y-102" value="&lt;h1&gt;说明&lt;/h1&gt;&lt;p&gt;effFlag，是否可编辑&lt;span style=&quot;font-size: 9.8pt; color: rgb(106, 135, 89); font-family: &amp;quot;JetBrains Mono&amp;quot;, monospace;&quot;&gt; X&lt;/span&gt;&lt;span style=&quot;font-family: 宋体, monospace; font-size: 9.8pt; color: rgb(106, 135, 89);&quot;&gt;：可以编辑，&lt;/span&gt;&lt;span style=&quot;font-size: 9.8pt; color: rgb(106, 135, 89); font-family: &amp;quot;JetBrains Mono&amp;quot;, monospace;&quot;&gt;null&lt;/span&gt;&lt;span style=&quot;font-family: 宋体, monospace; font-size: 9.8pt; color: rgb(106, 135, 89);&quot;&gt;：不可编辑&lt;/span&gt;&lt;br&gt;&lt;/p&gt;&lt;p&gt;&lt;span style=&quot;font-family: 宋体, monospace; font-size: 9.8pt; color: rgb(106, 135, 89);&quot;&gt;switch:&lt;/span&gt;开关标识（&lt;span style=&quot;font-size: 9.8pt; color: rgb(106, 135, 89); font-family: &amp;quot;JetBrains Mono&amp;quot;, monospace;&quot;&gt;0&lt;/span&gt;&lt;span style=&quot;font-family: 宋体, monospace; font-size: 9.8pt; color: rgb(106, 135, 89);&quot;&gt;：关；&lt;/span&gt;&lt;span style=&quot;font-size: 9.8pt; color: rgb(106, 135, 89); font-family: &amp;quot;JetBrains Mono&amp;quot;, monospace;&quot;&gt;1&lt;/span&gt;&lt;span style=&quot;font-family: 宋体, monospace; font-size: 9.8pt; color: rgb(106, 135, 89);&quot;&gt;：开）&lt;/span&gt;&lt;/p&gt;" style="text;html=1;strokeColor=none;fillColor=none;spacing=5;spacingTop=-20;whiteSpace=wrap;overflow=hidden;rounded=0;" vertex="1" parent="1">
          <mxGeometry x="1430" y="670" width="220" height="120" as="geometry" />
        </mxCell>
        <mxCell id="2C9ELIlUflR8zAabHK5Y-103" style="edgeStyle=orthogonalEdgeStyle;rounded=0;orthogonalLoop=1;jettySize=auto;html=1;exitX=1;exitY=0.5;exitDx=0;exitDy=0;entryX=0;entryY=0.5;entryDx=0;entryDy=0;" edge="1" parent="1" source="2C9ELIlUflR8zAabHK5Y-98" target="2C9ELIlUflR8zAabHK5Y-58">
          <mxGeometry relative="1" as="geometry" />
        </mxCell>
      </root>
    </mxGraphModel>
  </diagram>
</mxfile>
